<svg xmlns="http://www.w3.org/2000/svg" version="1.1" xmlns:xlink="http://www.w3.org/1999/xlink" xmlns:svgjs="http://svgjs.dev/svgjs" width="1000" height="1000" viewBox="0 0 1000 1000"><rect width="1000" height="1000" fill="#ca3433"></rect><g transform="matrix(0.7,0,0,0.7,149.57575757575756,434.76645060956184)"><svg viewBox="0 0 396 74" data-background-color="#ca3433" preserveAspectRatio="xMidYMid meet" height="186" width="1000" xmlns="http://www.w3.org/2000/svg" xmlns:xlink="http://www.w3.org/1999/xlink"><defs></defs><g id="tight-bounds" transform="matrix(1,0,0,1,0.2400000000000091,0.07590364740721611)"><svg viewBox="0 0 395.52 73.84819270518555" height="73.84819270518555" width="395.52"><g><svg viewBox="0 0 510.1075769678307 95.24302853027821" height="73.84819270518555" width="395.52"><g transform="matrix(1,0,0,1,114.5875769678307,29.431478258592463)"><svg viewBox="0 0 395.52 36.38007201309328" height="36.38007201309328" width="395.52"><g><svg viewBox="0 0 395.52 36.38007201309328" height="36.38007201309328" width="395.52"><g><svg viewBox="0 0 395.52 36.38007201309328" height="36.38007201309328" width="395.52"><g transform="matrix(1,0,0,1,0,0)"><svg width="395.52" viewBox="2.5999999046325684 -33.5 458.2200012207031 42.150001525878906" height="36.38007201309328" data-palette-color="#f7e1e1"><path d="M16.8 0L2.6 0 2.6-0.8 6.8-2.85 6.8-30.15 2.6-32.2 2.6-33 18-33Q23.25-33 26.28-30.83 29.3-28.65 29.3-24.85L29.3-24.85Q29.3-22.05 27.43-19.98 25.55-17.9 22.5-16.75L22.5-16.75 31.85-2.7 35.35-0.8 35.35 0 26 0 16.55-15.25 13.05-15.25 13.05-2.9 16.8-0.8 16.8 0ZM15.6-30.25L15.6-30.25 13.05-30.25 13.05-17.8 15.9-17.8Q19-17.8 20.93-19.55 22.85-21.3 22.85-24.1L22.85-24.1Q22.85-27 20.95-28.63 19.05-30.25 15.6-30.25ZM65.15 0L37.6 0 37.6-0.8 41.8-2.85 41.8-30.15 37.6-32.2 37.6-33 63.75-33 63.75-24.35 62.95-24.35 59.5-30.25 48.05-30.25 48.05-18.4 56.1-18.4 58.8-22.65 59.6-22.65 59.6-11.5 58.8-11.5 56.1-15.65 48.05-15.65 48.05-2.75 60.75-2.75 64.35-9.75 65.15-9.75 65.15 0ZM86.4 0L71.05 0 71.05-0.8 75.25-2.85 75.25-30.15 71.05-32.2 71.05-33 96.7-33 96.7-24.35 95.9-24.35 92.6-30.25 81.5-30.25 81.5-18.3 89.05-18.3 91.75-22.55 92.55-22.55 92.55-11.6 91.75-11.6 89.05-15.75 81.5-15.75 81.5-2.85 86.4-0.8 86.4 0ZM119.54 0.5L119.54 0.5Q115.89 0.5 112.79-0.78 109.69-2.05 107.39-4.33 105.09-6.6 103.82-9.7 102.54-12.8 102.54-16.5L102.54-16.5Q102.54-20.2 103.82-23.3 105.09-26.4 107.39-28.68 109.69-30.95 112.79-32.23 115.89-33.5 119.54-33.5L119.54-33.5Q123.24-33.5 126.34-32.23 129.44-30.95 131.74-28.68 134.04-26.4 135.32-23.3 136.59-20.2 136.59-16.5L136.59-16.5Q136.59-12.8 135.32-9.7 134.04-6.6 131.74-4.33 129.44-2.05 126.34-0.78 123.24 0.5 119.54 0.5ZM120.44-2.05L120.44-2.05Q123.24-2.05 125.37-3.65 127.49-5.25 128.69-8.15 129.89-11.05 129.89-15L129.89-15Q129.89-19.85 128.42-23.45 126.94-27.05 124.42-29.03 121.89-31 118.79-31L118.79-31Q116.04-31 113.87-29.43 111.69-27.85 110.44-24.95 109.19-22.05 109.19-18.1L109.19-18.1Q109.19-13.25 110.69-9.65 112.19-6.05 114.77-4.05 117.34-2.05 120.44-2.05ZM156.24 0L142.04 0 142.04-0.8 146.24-2.85 146.24-30.15 142.04-32.2 142.04-33 157.44-33Q162.69-33 165.72-30.83 168.74-28.65 168.74-24.85L168.74-24.85Q168.74-22.05 166.87-19.98 164.99-17.9 161.94-16.75L161.94-16.75 171.29-2.7 174.79-0.8 174.79 0 165.44 0 155.99-15.25 152.49-15.25 152.49-2.9 156.24-0.8 156.24 0ZM155.04-30.25L155.04-30.25 152.49-30.25 152.49-17.8 155.34-17.8Q158.44-17.8 160.37-19.55 162.29-21.3 162.29-24.1L162.29-24.1Q162.29-27 160.39-28.63 158.49-30.25 155.04-30.25ZM188.54 0L176.89 0 176.89-0.8 181.04-2.85 182.09-30.15 177.74-32.2 177.74-33 188.84-33 199.49-8.3 210.09-33 220.74-33 220.74-32.2 216.49-30.5 217.34-2.85 220.99-0.8 220.99 0 207.34 0 207.34-0.8 211.24-2.8 210.74-26.9 199.14 0.25 196.54 0.25 184.94-26.65 184.29-2.8 188.54-0.8 188.54 0ZM235.49 0L224.69 0 224.69-0.8 227.79-2.5 240.74-33.25 244.24-33.25 257.04-2.6 260.44-0.8 260.44 0 246.04 0 246.04-0.8 250.39-2.55 246.84-11.25 234.84-11.25 231.34-2.55 235.49-0.8 235.49 0ZM240.84-25.95L235.99-14 245.69-14 240.84-25.95ZM275.03 0.5L275.03 0.5Q271.83 0.5 269.46-0.13 267.08-0.75 264.73-1.95L264.73-1.95 264.23-10.3 265.13-10.3 268.18-4.55Q271.28-2 274.68-2L274.68-2Q277.48-2 279.18-3.38 280.88-4.75 280.88-7.3L280.88-7.3Q280.88-9.2 280.01-10.38 279.13-11.55 277.33-12.53 275.53-13.5 272.63-14.8L272.63-14.8Q269.13-16.5 267.23-18.48 265.33-20.45 265.33-23.8L265.33-23.8Q265.33-25.7 266.28-27.45 267.23-29.2 268.81-30.55 270.38-31.9 272.36-32.7 274.33-33.5 276.43-33.5L276.43-33.5Q278.93-33.5 281.11-32.93 283.28-32.35 285.28-31.3L285.28-31.3 285.78-23.3 284.93-23.3 281.88-28.8Q280.43-29.9 279.18-30.45 277.93-31 276.33-31L276.33-31Q274.23-31 272.86-29.6 271.48-28.2 271.48-26.05L271.48-26.05Q271.48-23.8 272.98-22.43 274.48-21.05 277.98-19.4L277.98-19.4Q281.03-18 282.98-16.65 284.93-15.3 285.88-13.6 286.83-11.9 286.83-9.4L286.83-9.4Q286.83-7 285.81-5.18 284.78-3.35 283.06-2.08 281.33-0.8 279.23-0.15 277.13 0.5 275.03 0.5ZM318.68 0L304.48 0 304.48-0.8 308.68-2.85 308.68-30.15 304.48-32.2 304.48-33 319.88-33Q325.13-33 328.15-30.83 331.18-28.65 331.18-24.85L331.18-24.85Q331.18-22.05 329.3-19.98 327.43-17.9 324.38-16.75L324.38-16.75 333.73-2.7 337.23-0.8 337.23 0 327.88 0 318.43-15.25 314.93-15.25 314.93-2.9 318.68-0.8 318.68 0ZM317.48-30.25L317.48-30.25 314.93-30.25 314.93-17.8 317.78-17.8Q320.88-17.8 322.8-19.55 324.73-21.3 324.73-24.1L324.73-24.1Q324.73-27 322.83-28.63 320.93-30.25 317.48-30.25ZM356.78 0.5L356.78 0.5Q353.13 0.5 350.03-0.78 346.93-2.05 344.63-4.33 342.33-6.6 341.05-9.7 339.78-12.8 339.78-16.5L339.78-16.5Q339.78-20.2 341.05-23.3 342.33-26.4 344.63-28.68 346.93-30.95 350.03-32.23 353.13-33.5 356.78-33.5L356.78-33.5Q360.48-33.5 363.58-32.23 366.68-30.95 368.98-28.68 371.28-26.4 372.55-23.3 373.83-20.2 373.83-16.5L373.83-16.5Q373.83-12.8 372.55-9.7 371.28-6.6 368.98-4.33 366.68-2.05 363.58-0.78 360.48 0.5 356.78 0.5ZM357.68-2.05L357.68-2.05Q360.48-2.05 362.6-3.65 364.73-5.25 365.93-8.15 367.13-11.05 367.13-15L367.13-15Q367.13-19.85 365.65-23.45 364.18-27.05 361.65-29.03 359.13-31 356.03-31L356.03-31Q353.28-31 351.1-29.43 348.93-27.85 347.68-24.95 346.43-22.05 346.43-18.1L346.43-18.1Q346.43-13.25 347.93-9.65 349.43-6.05 352-4.05 354.58-2.05 357.68-2.05ZM379.32 8.65L379.32 8.65Q378.67 8.65 378.2 8.33 377.72 8 377.72 7.25L377.72 7.25Q377.72 6.9 377.85 6.23 377.97 5.55 378.32 3.9L378.32 3.9 378.67 3.9Q379.47 4.1 379.92 4.23 380.37 4.35 380.97 4.35L380.97 4.35Q381.97 4.35 382.7 3.9 383.42 3.45 383.8 1.98 384.17 0.5 384.17-2.5L384.17-2.5 384.17-30.15 380.02-32.2 380.02-33 394.62-33 394.62-32.2 390.47-30.15 390.47-12.15Q390.47-8.35 389.77-5.1 389.07-1.85 387.92 0.65 386.77 3.15 385.42 4.65L385.42 4.65Q383.47 6.8 382.17 7.73 380.87 8.65 379.32 8.65ZM409.47 0L398.67 0 398.67-0.8 401.77-2.5 414.72-33.25 418.22-33.25 431.02-2.6 434.42-0.8 434.42 0 420.02 0 420.02-0.8 424.37-2.55 420.82-11.25 408.82-11.25 405.32-2.55 409.47-0.8 409.47 0ZM414.82-25.95L409.97-14 419.67-14 414.82-25.95ZM449.02 0.5L449.02 0.5Q445.82 0.5 443.44-0.13 441.07-0.75 438.72-1.95L438.72-1.95 438.22-10.3 439.12-10.3 442.17-4.55Q445.27-2 448.67-2L448.67-2Q451.47-2 453.17-3.38 454.87-4.75 454.87-7.3L454.87-7.3Q454.87-9.2 453.99-10.38 453.12-11.55 451.32-12.53 449.52-13.5 446.62-14.8L446.62-14.8Q443.12-16.5 441.22-18.48 439.32-20.45 439.32-23.8L439.32-23.8Q439.32-25.7 440.27-27.45 441.22-29.2 442.79-30.55 444.37-31.9 446.34-32.7 448.32-33.5 450.42-33.5L450.42-33.5Q452.92-33.5 455.09-32.93 457.27-32.35 459.27-31.3L459.27-31.3 459.77-23.3 458.92-23.3 455.87-28.8Q454.42-29.9 453.17-30.45 451.92-31 450.32-31L450.32-31Q448.22-31 446.84-29.6 445.47-28.2 445.47-26.05L445.47-26.05Q445.47-23.8 446.97-22.43 448.47-21.05 451.97-19.4L451.97-19.4Q455.02-18 456.97-16.65 458.92-15.3 459.87-13.6 460.82-11.9 460.82-9.4L460.82-9.4Q460.82-7 459.79-5.18 458.77-3.35 457.04-2.08 455.32-0.8 453.22-0.15 451.12 0.5 449.02 0.5Z" opacity="1" transform="matrix(1,0,0,1,0,0)" fill="#f7e1e1" class="undefined-text-0" data-fill-palette-color="primary" id="text-0"></path></svg></g></svg></g></svg></g></svg></g><g><svg viewBox="0 0 105.99911508726768 95.24302853027821" height="95.24302853027821" width="105.99911508726768"><g><svg xmlns="http://www.w3.org/2000/svg" xmlns:xlink="http://www.w3.org/1999/xlink" version="1.1" x="0" y="0" viewBox="5.049997329711914 9.599998474121094 89.92500305175781 80.80001068115234" style="enable-background:new 0 0 100 100;" xml:space="preserve" height="95.24302853027821" width="105.99911508726768" class="icon-icon-0" data-fill-palette-color="accent" id="icon-0"><g fill="#ffffff" data-fill-palette-color="accent"><path d="M45 67.6h10.5 13c1.4 0 2.5-1.1 2.5-2.5V43.3c0-0.9-0.5-1.7-1.3-2.2L51.5 30.6c-0.8-0.4-1.7-0.4-2.5 0L30.8 41.1c-0.8 0.4-1.3 1.3-1.3 2.2v21.8c0 1.4 1.1 2.5 2.5 2.5H45zM47.5 62.6V53H53v9.6H47.5zM34.6 44.7l15.7-9.1L66 44.7v17.9h-8V50.5c0-1.4-1.1-2.5-2.5-2.5H45c-1.4 0-2.5 1.1-2.5 2.5v12.1h-8V44.7z" fill="#ffffff" data-fill-palette-color="accent"></path><path d="M86.6 55.2c-1.4-0.2-2.7 0.7-2.9 2-2.8 16.3-16.9 28.1-33.5 28.1-16.4 0-30.2-11.7-33.3-27.3l1.4 1.4c0.5 0.5 1.1 0.7 1.8 0.7s1.3-0.2 1.8-0.7c1-1 1-2.6 0-3.5l-6.3-6.3c-0.1-0.1-0.2-0.2-0.4-0.3-0.1 0-0.1-0.1-0.2-0.1-0.1 0-0.2-0.1-0.2-0.1-0.1 0-0.2-0.1-0.3-0.1-0.1 0-0.1 0-0.2-0.1-0.3-0.1-0.7-0.1-1 0-0.1 0-0.1 0-0.2 0.1-0.1 0-0.2 0-0.2 0.1-0.1 0-0.2 0.1-0.2 0.1-0.1 0-0.1 0.1-0.2 0.1-0.1 0.1-0.3 0.2-0.4 0.3l-6.3 6.3c-1 1-1 2.6 0 3.5 0.5 0.5 1.1 0.7 1.8 0.7s1.3-0.2 1.8-0.7l2.4-2.4c2.7 18.8 19 33.4 38.6 33.4 19 0 35.2-13.6 38.4-32.3C88.9 56.8 88 55.5 86.6 55.2z" fill="#ffffff" data-fill-palette-color="accent"></path><path d="M94.3 40.5c-1-1-2.6-1-3.5 0L88.3 43c-2.7-18.8-19-33.4-38.6-33.4-19 0-35.2 13.6-38.4 32.3-0.2 1.4 0.7 2.7 2 2.9 1.4 0.2 2.7-0.7 2.9-2 2.8-16.3 16.9-28.1 33.5-28.1 16.4 0 30.2 11.7 33.3 27.3l-1.4-1.4c-1-1-2.6-1-3.5 0-1 1-1 2.6 0 3.5l6.3 6.3c0.1 0.1 0.2 0.2 0.4 0.3 0.1 0 0.1 0.1 0.2 0.1 0.1 0 0.2 0.1 0.3 0.1 0.1 0 0.2 0.1 0.2 0.1 0.1 0 0.1 0 0.2 0.1 0.2 0 0.3 0 0.5 0s0.3 0 0.5 0c0.1 0 0.1 0 0.2-0.1 0.1 0 0.2 0 0.2-0.1 0.1 0 0.2-0.1 0.3-0.1 0.1 0 0.1-0.1 0.2-0.1 0.1-0.1 0.3-0.2 0.4-0.3l6.3-6.3C95.2 43.1 95.2 41.5 94.3 40.5z" fill="#ffffff" data-fill-palette-color="accent"></path></g></svg></g></svg></g></svg></g></svg><rect width="395.52" height="73.84819270518555" fill="none" stroke="none" visibility="hidden"></rect></g></svg></g></svg>